<?xml version="1.0" encoding="utf-8"?>
<!-- Generator: Adobe Illustrator 19.2.1, SVG Export Plug-In . SVG Version: 6.00 Build 0)  -->
<svg version="1.1" id="Layer_1" xmlns="http://www.w3.org/2000/svg" xmlns:xlink="http://www.w3.org/1999/xlink" x="0px" y="0px"
	 viewBox="0 0 264 62" style="enable-background:new 0 0 264 62;" xml:space="preserve">
<style type="text/css">
	.st0{fill:#FFFFFF;}
</style>
<g>
	<path class="st0" d="M198.2,46.2l-2.4-12.7c0,0-0.4-1.8,1-1.9s2.5-0.1,2.5-0.1s1.2,0,2.1,1.5c0.8,1.5,7,9.9,7,9.9l38.2,0
		c0,0,3.1,0,4.8,1c1.7,1.1,0.9,1.1,3.8,2c3.5,0.8,7.4,6,0.3,6.7c-4.3,0.3-20.4,0.4-20.4,0.4l-17.4,5.9l-4.6,0
		c-1.3-0.1-2.6-1.5-0.9-2.4c1.7-1,6.3-3.8,6.3-3.8l-21.9-3.6c-1.7-0.2-2.3-2.3-0.7-3C196.8,46.4,198.2,46.2,198.2,46.2z"/>
	<g>
		<polygon class="st0" points="2.7,41.7 6.1,41.7 6.1,24.7 22.9,24.7 22.9,21.7 6.1,21.7 6.1,9 24.1,9 24.1,5.9 2.7,5.9 		"/>
		<rect x="30.5" y="3.5" class="st0" width="3" height="38.2"/>
		<rect x="42.6" y="18.3" class="st0" width="3" height="23.3"/>
		<path class="st0" d="M44.1,6.8c-0.6,0-1.2,0.2-1.6,0.7c-0.4,0.4-0.7,1-0.7,1.6c0,0.6,0.2,1.2,0.7,1.6c0.4,0.4,1,0.7,1.6,0.7
			c0.6,0,1.2-0.2,1.6-0.7c0.4-0.4,0.7-1,0.7-1.6c0-0.6-0.2-1.2-0.7-1.6C45.3,7.1,44.8,6.8,44.1,6.8z"/>
		<path class="st0" d="M74.6,22.3h-0.1c-0.9-1.4-2.1-2.5-3.6-3.3c-1.5-0.8-3.3-1.2-5.3-1.2c-1.7,0-3.3,0.3-4.8,1
			c-1.5,0.6-2.8,1.5-4,2.6c-1.1,1.1-2,2.3-2.7,3.8c-0.7,1.4-1,3-1,4.6c0,1.6,0.3,3.2,1,4.6c0.7,1.4,1.5,2.7,2.7,3.8
			c1.1,1.1,2.4,2,4,2.6c1.5,0.6,3.1,0.9,4.8,0.9c2,0,3.8-0.4,5.3-1.2c1.5-0.8,2.7-1.9,3.6-3.3h0.1v3.2c0,0.4,0,1-0.1,1.7
			c0,0.7-0.1,1.5-0.3,2.2c-0.2,0.8-0.5,1.6-0.9,2.4c-0.4,0.8-0.9,1.5-1.6,2.2c-0.7,0.7-1.6,1.2-2.6,1.6c-1.1,0.4-2.4,0.6-3.9,0.6
			c-1.8,0-3.5-0.4-5.2-1.1c-1.6-0.7-3-1.8-4-3.3l-2.4,2.2c0.6,0.8,1.3,1.5,2.1,2.1c0.8,0.6,1.7,1.1,2.8,1.5c1,0.4,2.1,0.7,3.2,1
			c1.1,0.2,2.3,0.3,3.5,0.3c1.2,0,2.5-0.2,3.9-0.5c1.4-0.3,2.8-1,4.1-2c1.3-1,2.3-2.4,3.2-4.1c0.8-1.8,1.3-4.1,1.3-7V18.3h-3V22.3z
			 M74,33.3c-0.5,1.1-1.1,2.1-2,2.9c-0.8,0.8-1.8,1.5-2.9,2c-1.1,0.5-2.3,0.7-3.6,0.7c-1.3,0-2.5-0.2-3.6-0.7
			c-1.1-0.5-2.1-1.1-2.9-2c-0.8-0.8-1.5-1.8-2-2.9c-0.5-1.1-0.7-2.3-0.7-3.6c0-1.3,0.2-2.5,0.7-3.6c0.5-1.1,1.1-2.1,2-2.9
			c0.8-0.8,1.8-1.5,2.9-2c1.1-0.5,2.3-0.7,3.6-0.7c1.3,0,2.5,0.2,3.6,0.7c1.1,0.5,2.1,1.1,2.9,2c0.8,0.8,1.5,1.8,2,2.9
			c0.5,1.1,0.7,2.3,0.7,3.6C74.7,31,74.5,32.2,74,33.3z"/>
		<path class="st0" d="M103.3,20.8c-0.7-0.9-1.6-1.7-2.7-2.2c-1.1-0.6-2.6-0.9-4.4-0.9c-1.9,0-3.5,0.5-4.9,1.4c-1.4,0.9-2.4,2-3,3.3
			h-0.1V3.5h-3v38.2h3V30c0-1.6,0.2-3,0.6-4.2c0.4-1.2,1-2.2,1.7-3C91.2,22,92,21.4,93,21c1-0.4,2-0.6,3.2-0.6c1.2,0,2.2,0.2,3,0.6
			c0.8,0.4,1.3,1,1.8,1.7c0.4,0.7,0.7,1.5,0.9,2.4c0.2,0.9,0.3,1.8,0.3,2.8v13.7h3V27.8c0-1.3-0.1-2.5-0.4-3.7
			C104.5,22.8,104,21.8,103.3,20.8z"/>
		<path class="st0" d="M122.9,39.3c-0.6,0.2-1.2,0.2-1.7,0.2c-1,0-1.8-0.3-2.4-0.9c-0.6-0.6-0.9-1.4-0.9-2.4V21.1h6.7v-2.7h-6.7
			v-6.7h-3v6.7h-5v2.7h5v15.2c0,0.8,0.1,1.6,0.3,2.3c0.2,0.7,0.6,1.4,1,1.9c0.5,0.5,1.1,1,1.9,1.3c0.8,0.3,1.7,0.5,2.8,0.5
			c0.6,0,1.2-0.1,2-0.3c0.7-0.2,1.4-0.4,2-0.6l-0.3-2.7C124,39,123.5,39.2,122.9,39.3z"/>
		<polygon class="st0" points="156.4,5.9 151.8,5.9 134.5,21.7 134.2,21.7 134.2,5.9 130.8,5.9 130.8,41.7 134.2,41.7 134.2,23.2 
			134.5,23.2 152.6,41.7 157.4,41.7 138.3,22.3 		"/>
		<path class="st0" d="M162.9,6.8c-0.6,0-1.2,0.2-1.6,0.7c-0.4,0.4-0.7,1-0.7,1.6c0,0.6,0.2,1.2,0.7,1.6c0.4,0.4,1,0.7,1.6,0.7
			c0.6,0,1.2-0.2,1.6-0.7c0.4-0.4,0.7-1,0.7-1.6c0-0.6-0.2-1.2-0.7-1.6C164,7.1,163.5,6.8,162.9,6.8z"/>
		<rect x="161.3" y="18.3" class="st0" width="3" height="23.3"/>
		<path class="st0" d="M184.4,38.7c-0.5,0.2-1.1,0.4-1.7,0.6c-0.6,0.2-1.2,0.2-1.7,0.2c-1,0-1.8-0.3-2.4-0.9
			c-0.6-0.6-0.9-1.4-0.9-2.4V21.1h6.7v-2.7h-6.7v-6.7h-3v6.7h-5v2.7h5v15.2c0,0.8,0.1,1.6,0.3,2.3c0.2,0.7,0.6,1.4,1,1.9
			c0.5,0.5,1.1,1,1.9,1.3c0.8,0.3,1.7,0.5,2.8,0.5c0.6,0,1.2-0.1,2-0.3c0.7-0.2,1.4-0.4,2-0.6L184.4,38.7z"/>
	</g>
	<polygon class="st0" points="45.6,45.9 2.7,45.3 2.7,48.2 2.7,49.6 45.6,49.4 	"/>
	<polygon class="st0" points="85.1,46.3 85.1,49.1 190.6,48.5 190.6,47.7 	"/>
</g>
</svg>
